<svg width="117" height="39" viewBox="0 0 117 39" fill="none" xmlns="http://www.w3.org/2000/svg">
<g filter="url(#filter0_d_20_15)">
<path d="M49.2729 22.0894C47.6284 22.2519 44.3833 21.3468 44.2598 23.755C44.2468 24.7495 44.9764 25.4775 46.0684 25.4873C48.1825 25.5068 50.295 25.5068 52.4092 25.4873C53.493 25.4775 54.2568 24.7236 54.2357 23.7567C54.0829 21.3826 50.9125 22.234 49.2729 22.0894ZM63.2479 23.8249C63.2804 21.6377 60.019 21.5662 59.9134 23.7355C59.8842 25.9504 63.1764 26.0625 63.2479 23.8249ZM40.3257 6.71368C40.3647 4.4858 36.9717 4.5313 36.9782 6.69905C37.0107 8.84405 40.3013 8.9058 40.3257 6.71368Z" fill="#FDFDFE"/>
<path d="M4.03132 24.3774C4.55782 22.8499 5.95207 21.8619 7.60794 22.0196C15.2519 22.0131 22.8959 22.0066 30.5416 22.0017C30.5367 21.7173 30.3222 21.8213 30.2117 21.7807C27.2266 20.7618 27.9838 16.6457 30.9966 16.5774C32.8734 16.4312 34.8364 16.7871 36.6759 16.4133C37.5502 16.1241 36.9961 15.2059 36.9603 14.5641C36.8401 13.1828 37.6379 12.2517 38.9509 12.2192C40.2607 12.1867 41.2568 13.2218 41.1739 14.5511C41.1512 15.2417 40.5402 16.2199 41.5428 16.4523C43.6098 16.6587 45.7873 16.6262 47.8592 16.4686C49.2144 16.1468 48.0688 14.8289 48.3223 13.9303C48.6262 11.5399 52.3929 11.7788 52.4986 14.1172C52.7098 14.9378 51.7267 16.2264 52.9861 16.4799C57.5588 16.7009 62.1657 16.4929 66.7498 16.5563C67.1382 16.5563 67.6923 16.6831 67.8239 16.2492C67.8321 14.7851 60.6479 12.8383 59.1952 12.4662C58.0593 12.1152 56.3531 12.2858 55.9436 10.8834C55.6234 9.8792 56.4684 8.61332 57.5751 8.77257C61.4036 9.42582 65.6351 10.3862 68.2757 13.4623C69.3124 14.7786 69.4181 16.2346 68.8347 17.7377C68.1197 19.5853 65.9796 19.9119 64.2262 19.9038C60.7454 19.9054 57.2647 19.9022 53.7839 19.9071C51.9639 20.0793 50.4738 18.8183 50.5209 16.9268C49.7881 19.5463 49.3054 19.9054 46.5949 19.9054C43.4977 19.7381 39.8756 20.9211 39.0696 16.8683C38.6909 21.0007 34.1913 19.7088 31.2176 19.9054C32.8377 20.1801 34.0451 21.1323 33.9118 22.8889C33.8338 24.0687 32.9563 25.0632 31.7798 25.2696C23.5996 25.5702 15.3819 25.2874 7.18869 25.3817C6.79707 25.3817 6.42494 25.2777 6.42007 25.9391C6.41682 26.4119 5.93744 26.6622 5.48082 26.7759C4.06057 27.0311 3.91594 25.4028 4.03132 24.3774Z" fill="#030303"/>
<path d="M94.5877 16.5384C95.761 16.5449 96.9342 16.5514 98.1075 16.5612C98.3252 16.5628 98.5933 16.5742 98.699 16.3954C98.8306 16.1744 98.5641 16.0233 98.4373 15.8722C97.1016 14.6729 96.5003 12.5344 97.815 11.0996C99.9551 8.96107 103.056 11.3628 103.033 14.0424C103.485 9.57044 107.692 9.40307 108.192 14.0896C108.264 13.1991 108.296 12.4369 108.496 11.7008C108.88 9.57857 111.704 9.36894 112.326 11.3157C112.279 14.2033 110.284 13.3859 110.919 17.6093C110.628 21.3647 105.777 20.3702 105.734 16.9967C105.358 18.6054 104.747 20.0078 102.766 19.8632C101.536 19.7738 100.932 18.8492 100.459 16.5872C100.392 21.3062 95.8633 19.5983 92.6783 19.8859C93.6013 18.9321 94.2318 17.8141 94.5877 16.5384Z" fill="#030303"/>
<path d="M80.6712 0.0463023C81.5812 0.611802 81.8152 1.43892 81.7144 2.46592C81.4934 4.70842 81.3309 6.95905 81.1343 9.20318C80.9994 11.3547 80.6793 13.5679 80.7996 15.6885C80.5184 16.9252 81.2156 18.9353 82.1044 19.8892C67.1203 19.9184 74.5628 21.727 71.7288 2.44155C71.2299 -0.415199 75.1153 -0.975822 75.1234 2.00768C75.0357 3.32555 74.9106 4.63855 74.7058 5.94505C74.2086 9.11543 73.5797 12.2663 73.2092 15.4578C73.1182 16.2394 73.3587 16.5482 74.1273 16.5547C75.7491 16.5709 77.3724 16.5498 78.9942 16.5677C79.3387 16.5709 79.4183 16.4669 79.4086 16.1338C79.3241 13.5761 79.1518 11.0248 78.9227 8.4768C78.7374 6.41955 78.5749 4.35905 78.3718 2.30342C78.1524 0.847425 79.2314 -0.241323 80.6712 0.0463023Z" fill="#030303"/>
<path d="M16.9761 30.1397C15.3755 29.3483 15.7037 26.8702 17.6017 26.8393C19.8003 26.8084 22.0006 26.8182 24.1992 26.8361C25.86 26.8133 26.5392 29.0184 25.1336 29.9366C25.0572 29.9951 24.9191 29.9967 24.924 30.1397C22.2736 30.1397 19.6248 30.1397 16.9761 30.1397Z" fill="#3E04DA"/>
<path d="M81.9193 19.9639C75.2259 10.5503 96.2241 3.43116 94.9761 16.4588C93.8305 21.0169 88.1479 23.8477 83.9261 21.5434C83.6353 21.4037 83.3314 21.09 83.0519 21.4264C82.6879 21.9643 84.0935 22.0732 83.0876 22.9929C81.8088 24.2702 80.5624 25.5799 79.3371 26.9092C78.7749 27.6177 78.1086 26.9433 77.626 26.537C77.0443 25.9374 77.0508 25.6222 77.6163 25.0209C78.4905 24.3855 81.1035 20.6675 81.8705 21.0267C82.1451 21.207 82.3239 21.0494 82.4783 20.8382C82.709 20.5554 82.059 20.2142 81.9193 19.9639ZM93.694 14.4844C93.9995 10.9695 90.5968 10.196 87.9594 10.8704C84.633 11.561 80.551 15.6024 82.8861 19.0442C86.3636 23.131 93.5055 19.1595 93.694 14.4844Z" fill="#3E04DA"/>
<path d="M49.2729 22.0894C50.9109 22.2341 54.0829 21.3842 54.2373 23.7567C54.2584 24.7236 53.493 25.4776 52.4108 25.4873C50.2967 25.5068 48.1842 25.5068 46.07 25.4873C44.978 25.4776 44.2484 24.7512 44.2614 23.7551C44.3833 21.3452 47.6284 22.2519 49.2729 22.0894Z" fill="#3E04DA"/>
<path d="M63.2479 23.8249C63.1764 26.0625 59.8842 25.9488 59.9134 23.7355C60.019 21.5678 63.2804 21.6377 63.2479 23.8249Z" fill="#3E04DA"/>
<path d="M40.3257 6.71369C40.2997 8.90419 37.009 8.84244 36.9782 6.69744C36.9717 4.53132 40.3663 4.48744 40.3257 6.71369Z" fill="#3E04DA"/>
<path d="M93.6939 14.4844C93.5054 19.1595 86.3635 23.131 82.886 19.0442C80.5525 15.5992 84.6313 11.5626 87.9593 10.8704C90.5966 10.196 93.9978 10.9679 93.6939 14.4844ZM92.3403 14.6355C92.3126 14.2407 92.4605 13.5988 91.9828 13.4509C91.6366 13.368 91.5067 13.6946 91.3685 13.953C91.0305 14.5819 90.6048 15.1507 90.1482 15.6983C89.2138 16.8147 88.1153 17.7523 86.955 18.6217C86.3944 18.8995 86.5666 19.3561 87.1451 19.3919C89.867 19.5901 92.4443 17.1348 92.3403 14.6355Z" fill="#FDFDFE"/>
<path d="M92.0673 14.7965C92.1665 17.1836 89.7013 19.5333 87.0997 19.3432C86.5553 19.3075 86.3733 18.8801 86.9177 18.6071C88.0276 17.7751 89.079 16.8797 89.9711 15.8105C90.4082 15.2872 90.8145 14.7428 91.1378 14.1416C91.2711 13.8946 91.3946 13.5826 91.7245 13.6622C92.1843 13.8036 92.0413 14.4195 92.0673 14.7965Z" fill="#3E04DA"/>
</g>
<defs>
<filter id="filter0_d_20_15" x="0" y="0" width="116.326" height="38.1397" filterUnits="userSpaceOnUse" color-interpolation-filters="sRGB">
<feFlood flood-opacity="0" result="BackgroundImageFix"/>
<feColorMatrix in="SourceAlpha" type="matrix" values="0 0 0 0 0 0 0 0 0 0 0 0 0 0 0 0 0 0 127 0" result="hardAlpha"/>
<feOffset dy="4"/>
<feGaussianBlur stdDeviation="2"/>
<feComposite in2="hardAlpha" operator="out"/>
<feColorMatrix type="matrix" values="0 0 0 0 0 0 0 0 0 0 0 0 0 0 0 0 0 0 0.25 0"/>
<feBlend mode="normal" in2="BackgroundImageFix" result="effect1_dropShadow_20_15"/>
<feBlend mode="normal" in="SourceGraphic" in2="effect1_dropShadow_20_15" result="shape"/>
</filter>
</defs>
</svg>
